<?xml version="1.0" encoding="utf-8"?>
<!-- Generator: Adobe Illustrator 16.0.0, SVG Export Plug-In . SVG Version: 6.00 Build 0)  -->
<!DOCTYPE svg PUBLIC "-//W3C//DTD SVG 1.1//EN" "http://www.w3.org/Graphics/SVG/1.1/DTD/svg11.dtd">
<svg version="1.1" id="Layer_1" xmlns="http://www.w3.org/2000/svg" xmlns:xlink="http://www.w3.org/1999/xlink" x="0px" y="0px"
	 width="50px" height="50px" viewBox="0 0 50 50" enable-background="new 0 0 50 50" xml:space="preserve">
<polyline fill="none" stroke="#1A171B" stroke-width="1.5" stroke-linecap="round" stroke-linejoin="round" stroke-miterlimit="10" points="
	9.848,25 25,7.014 40.152,25 "/>
<g enable-background="new    ">
	<path d="M17.229,33.343h-3.181v8.148h-0.881v-8.148H9.987v-0.779h7.242V33.343z"/>
	<path d="M24.8,41.554c-0.621,0-1.188-0.127-1.704-0.383s-0.958-0.596-1.326-1.019c-0.369-0.424-0.654-0.907-0.855-1.452
		s-0.302-1.103-0.302-1.673c0-0.595,0.107-1.165,0.32-1.71c0.214-0.545,0.51-1.026,0.887-1.446c0.378-0.419,0.821-0.752,1.333-0.999
		s1.064-0.371,1.66-0.371c0.62,0,1.188,0.132,1.703,0.396c0.516,0.265,0.956,0.61,1.32,1.038c0.365,0.427,0.648,0.911,0.85,1.452
		c0.201,0.54,0.301,1.092,0.301,1.653c0,0.596-0.106,1.165-0.32,1.71c-0.213,0.545-0.507,1.024-0.88,1.439s-0.815,0.746-1.327,0.994
		C25.948,41.431,25.395,41.554,24.8,41.554z M21.492,37.027c0,0.486,0.08,0.954,0.239,1.402s0.386,0.847,0.679,1.194
		c0.294,0.348,0.642,0.625,1.044,0.83s0.851,0.308,1.346,0.308c0.503,0,0.96-0.108,1.37-0.327c0.411-0.218,0.76-0.503,1.044-0.854
		c0.285-0.353,0.505-0.75,0.66-1.194s0.233-0.897,0.233-1.358c0-0.486-0.082-0.953-0.246-1.402
		c-0.163-0.448-0.392-0.844-0.686-1.188c-0.293-0.344-0.641-0.618-1.043-0.824c-0.402-0.205-0.847-0.308-1.333-0.308
		c-0.503,0-0.96,0.106-1.371,0.32c-0.41,0.214-0.759,0.497-1.043,0.849c-0.285,0.353-0.506,0.751-0.66,1.195
		C21.57,36.114,21.492,36.566,21.492,37.027z"/>
	<path d="M33.678,41.491v-8.928h3.696c0.386,0,0.739,0.082,1.063,0.245c0.322,0.164,0.601,0.378,0.836,0.642
		s0.417,0.563,0.547,0.899c0.13,0.335,0.194,0.675,0.194,1.018c0,0.369-0.061,0.724-0.182,1.063
		c-0.121,0.339-0.295,0.639-0.521,0.898s-0.497,0.47-0.812,0.629c-0.313,0.159-0.664,0.239-1.05,0.239h-2.904v3.294H33.678z
		 M34.545,37.417h2.854c0.26,0,0.497-0.057,0.711-0.17c0.214-0.112,0.396-0.264,0.547-0.452s0.268-0.406,0.352-0.654
		c0.084-0.247,0.127-0.505,0.127-0.773c0-0.276-0.049-0.538-0.145-0.785c-0.098-0.247-0.227-0.463-0.391-0.647
		c-0.163-0.185-0.356-0.329-0.578-0.435c-0.223-0.104-0.455-0.157-0.697-0.157h-2.779V37.417z"/>
</g>
</svg>
