<?xml version="1.0" encoding="iso-8859-1"?>
<!-- Generator: Adobe Illustrator 19.0.0, SVG Export Plug-In . SVG Version: 6.00 Build 0)  -->
<svg version="1.1" id="Capa_1" xmlns="http://www.w3.org/2000/svg" xmlns:xlink="http://www.w3.org/1999/xlink" x="0px" y="0px"
	 viewBox="0 0 204.802 204.802" style="enable-background:new 0 0 204.802 204.802;" xml:space="preserve">
<g>
	<g>
		<path d="M40.96,154.966c-1.884,0-3.413,1.529-3.413,3.413v8.875H6.827v-23.893c0-1.884-1.529-3.413-3.413-3.413
			c-1.884,0-3.413,1.529-3.413,3.413v27.307c0,1.884,1.529,3.413,3.413,3.413H40.96c1.884,0,3.413-1.529,3.413-3.413v-12.288
			C44.373,156.495,42.844,154.966,40.96,154.966z"/>
	</g>
</g>
<g>
	<g>
		<path d="M201.387,139.947c-1.884,0-3.413,1.529-3.413,3.413v23.893h-30.72v-8.533c0-1.884-1.529-3.413-3.413-3.413
			s-3.413,1.529-3.413,3.413v11.947c0,1.884,1.529,3.413,3.413,3.413h37.547c1.884,0,3.413-1.529,3.413-3.413v-27.307
			C204.8,141.477,203.271,139.947,201.387,139.947z"/>
	</g>
</g>
<g>
	<g>
		<path d="M201.387,109.227c-1.884,0-3.413,1.529-3.413,3.413v28.921c0,6.639-5.4,12.039-12.039,12.039h-54.862
			c-1.884,0-3.413,1.529-3.413,3.413s1.529,3.413,3.413,3.413h54.862c10.402,0,18.866-8.463,18.866-18.865v-28.921
			C204.8,110.757,203.271,109.227,201.387,109.227z"/>
	</g>
</g>
<g>
	<g>
		<path d="M70.658,153.601H18.866c-6.637,0-12.039-5.4-12.039-12.039v-27.897c0-1.884-1.529-3.413-3.413-3.413
			c-1.884,0-3.413,1.529-3.413,3.413v27.897c0,10.402,8.463,18.865,18.866,18.865h51.792c1.884,0,3.413-1.529,3.413-3.413
			C74.071,155.13,72.542,153.601,70.658,153.601z"/>
	</g>
</g>
<g>
	<g>
		<path d="M183.124,73.314l-1.683-11.776c-2.509-17.568-17.785-30.817-35.531-30.817H58.889c-17.746,0-33.021,13.249-35.531,30.816
			l-1.669,11.68c-0.268,1.867,1.029,3.596,2.896,3.862c1.857,0.268,3.596-1.027,3.862-2.895l1.669-11.68
			c2.033-14.228,14.403-24.957,28.773-24.957h87.021c14.37,0,26.74,10.728,28.773,24.957l1.683,11.776
			c0.244,1.702,1.705,2.93,3.376,2.93c0.162,0,0.324-0.012,0.486-0.034C182.093,76.908,183.39,75.181,183.124,73.314z"/>
	</g>
</g>
<g>
	<g>
		<path d="M190.09,82.361c-3.118-3.065-5.513-6.741-7.117-10.93c-0.404-1.056-1.306-1.843-2.406-2.103
			c-1.099-0.253-2.258,0.046-3.091,0.811c-5.869,5.398-13.462,8.37-21.378,8.37H48.707c-7.916,0-15.508-2.971-21.379-8.37
			c-0.833-0.766-1.988-1.065-3.092-0.811c-1.101,0.259-2.002,1.046-2.406,2.103c-1.603,4.188-3.995,7.864-7.115,10.93
			C4.987,91.915-0.235,104.689,0.01,118.333c0.247,13.8,11.875,25.028,25.921,25.028h152.94c14.046,0,25.673-11.228,25.923-25.028
			C205.039,104.689,199.817,91.917,190.09,82.361z M178.869,136.534H25.929c-10.348,0-18.915-8.219-19.094-18.326
			c-0.21-11.747,4.285-22.75,12.662-30.978c2.731-2.685,5.007-5.746,6.798-9.139c6.518,4.697,14.322,7.243,22.409,7.245h107.392
			c8.086,0,15.892-2.546,22.41-7.243c1.79,3.393,4.065,6.455,6.798,9.139c8.375,8.228,12.872,19.229,12.662,30.978
			C197.784,128.315,189.216,136.534,178.869,136.534z"/>
	</g>
</g>
<g>
	<g>
		<path d="M57.027,45.374c-1.331-1.333-3.495-1.333-4.826,0l-10.24,10.24c-1.333,1.333-1.333,3.494,0,4.826
			c0.666,0.667,1.539,1,2.413,1c0.874,0,1.748-0.333,2.413-1l10.24-10.24C58.359,48.868,58.359,46.707,57.027,45.374z"/>
	</g>
</g>
<g>
	<g>
		<path d="M74.093,41.961c-1.331-1.333-3.495-1.333-4.826,0l-25.6,25.6c-1.333,1.333-1.333,3.494,0,4.826
			c0.666,0.667,1.539,1,2.413,1c0.874,0,1.748-0.333,2.413-1l25.6-25.6C75.426,45.454,75.426,43.294,74.093,41.961z"/>
	</g>
</g>
<g>
	<g>
		<path d="M139.947,58.027c-13.175,0-23.893,10.718-23.893,23.893c0,1.884,1.529,3.413,3.413,3.413c1.884,0,3.413-1.529,3.413-3.413
			c0-9.411,7.656-17.067,17.067-17.067s17.067,7.656,17.067,17.067c0,1.884,1.529,3.413,3.413,3.413s3.413-1.529,3.413-3.413
			C163.84,68.745,153.122,58.027,139.947,58.027z"/>
	</g>
</g>
<g>
	<g>
		<path d="M40.96,109.227H13.653c-1.884,0-3.413,1.529-3.413,3.413v6.827c0,5.647,4.593,10.24,10.24,10.24h20.48
			c5.647,0,10.24-4.593,10.24-10.24C51.2,113.82,46.607,109.227,40.96,109.227z M40.96,122.881H20.48
			c-1.882,0-3.413-1.531-3.413-3.413v-3.413H40.96c1.882,0,3.413,1.531,3.413,3.413S42.842,122.881,40.96,122.881z"/>
	</g>
</g>
<g>
	<g>
		<path d="M191.147,109.227H163.84c-5.647,0-10.24,4.593-10.24,10.24c0,5.647,4.593,10.24,10.24,10.24h20.48
			c5.647,0,10.24-4.593,10.24-10.24v-6.827C194.56,110.757,193.031,109.227,191.147,109.227z M187.733,119.467
			c0,1.882-1.531,3.413-3.413,3.413h-20.48c-1.882,0-3.413-1.531-3.413-3.413s1.531-3.413,3.413-3.413h23.893V119.467z"/>
	</g>
</g>
<g>
	<g>
		<path d="M129.707,136.534H71.68c-1.884,0-3.413,1.529-3.413,3.413v20.48c0,1.884,1.529,3.413,3.413,3.413h58.027
			c1.884,0,3.413-1.529,3.413-3.413v-20.48C133.12,138.063,131.591,136.534,129.707,136.534z M126.293,157.014h-51.2v-13.653h51.2
			V157.014z"/>
	</g>
</g>
<g>
	<g>
		<path d="M134.827,105.814H69.973c-6.588,0-11.947,5.361-11.947,11.947c0,6.586,5.359,11.947,11.947,11.947h64.853
			c6.588,0,11.947-5.361,11.947-11.947C146.773,111.175,141.414,105.814,134.827,105.814z M134.827,122.881H69.973
			c-2.823,0-5.12-2.297-5.12-5.12c0-2.823,2.297-5.12,5.12-5.12h64.853c2.823,0,5.12,2.297,5.12,5.12
			C139.947,120.584,137.65,122.881,134.827,122.881z"/>
	</g>
</g>
<g>
	<g>
		<path d="M81.92,105.814c-1.884,0-3.413,1.529-3.413,3.413v17.067c0,1.884,1.529,3.413,3.413,3.413s3.413-1.529,3.413-3.413
			v-17.067C85.333,107.343,83.804,105.814,81.92,105.814z"/>
	</g>
</g>
<g>
	<g>
		<path d="M102.4,105.814c-1.884,0-3.413,1.529-3.413,3.413v17.067c0,1.884,1.529,3.413,3.413,3.413s3.413-1.529,3.413-3.413
			v-17.067C105.813,107.343,104.284,105.814,102.4,105.814z"/>
	</g>
</g>
<g>
	<g>
		<path d="M122.88,105.814c-1.884,0-3.413,1.529-3.413,3.413v17.067c0,1.884,1.529,3.413,3.413,3.413
			c1.884,0,3.413-1.529,3.413-3.413v-17.067C126.293,107.343,124.764,105.814,122.88,105.814z"/>
	</g>
</g>
<g>
</g>
<g>
</g>
<g>
</g>
<g>
</g>
<g>
</g>
<g>
</g>
<g>
</g>
<g>
</g>
<g>
</g>
<g>
</g>
<g>
</g>
<g>
</g>
<g>
</g>
<g>
</g>
<g>
</g>
</svg>
