<?xml version="1.0" encoding="iso-8859-1"?>
<!-- Generator: Adobe Illustrator 19.0.0, SVG Export Plug-In . SVG Version: 6.00 Build 0)  -->
<svg version="1.1" id="Capa_1" xmlns="http://www.w3.org/2000/svg" xmlns:xlink="http://www.w3.org/1999/xlink" x="0px" y="0px"
	 viewBox="0 0 512 512" style="enable-background:new 0 0 512 512;" xml:space="preserve">
<g>
	<g>
		<path d="M499.482,406.523h-10.181c3.907-5.355,6.219-11.943,6.219-19.064v-5.479c0-0.71-0.105-1.394-0.289-2.044
			c0.185-0.856,0.289-1.742,0.289-2.653v-20.38c0-1.689-0.341-3.299-0.949-4.77c5.611-5.011,9.151-12.295,9.151-20.391v-1.732
			c0-9.279-4.651-17.489-11.739-22.435c2.233-3.449,3.536-7.555,3.536-11.961v-1.271c0-3.348-0.753-6.522-2.093-9.368
			c1.294-1.349,2.093-3.177,2.093-5.193v-12.823c0-30.671-24.953-55.625-55.625-55.625h-51.502v-24.473
			c0-4.148-3.363-7.511-7.511-7.511s-7.511,3.363-7.511,7.511v24.473h-51.502c-30.671,0-55.625,24.953-55.625,55.625v12.823
			c0,2.017,0.799,3.845,2.093,5.193c-1.34,2.846-2.093,6.021-2.093,9.368v1.271c0,4.406,1.303,8.512,3.536,11.961
			c-7.088,4.946-11.739,13.156-11.739,22.435v1.732c0,8.097,3.541,15.38,9.151,20.391c-0.609,1.471-0.949,3.081-0.949,4.771v20.38
			c0,0.91,0.103,1.797,0.289,2.653c-0.184,0.651-0.289,1.335-0.289,2.044v5.479c0,7.121,2.313,13.709,6.219,19.064h-46.51
			c1.73-3.143,2.845-6.698,3.174-10.515l0.68-7.892c0.152-0.596,0.241-1.217,0.241-1.86c0-0.201-0.015-0.4-0.03-0.597l3.718-43.178
			c4.628-1.561,8.121-5.766,8.531-10.853l8.811-109.366c0.279-3.473-0.915-6.933-3.278-9.494c-0.798-0.865-1.715-1.593-2.706-2.194
			l1.145-13.297c5.767-1.116,10.138-6.197,10.138-12.285v-27.657v-0.777v-17.423c0-6.903-5.615-12.518-12.518-12.518h-66.639
			c-4.148,0-7.511,3.363-7.511,7.511c0,4.148,3.363,7.511,7.511,7.511h64.135v7.409H29.196v-7.409h41.159H94.02h28.788
			c4.148,0,7.511-3.363,7.511-7.511c0-4.148-3.363-7.511-7.511-7.511h-21.278V79.464c0-14.341-11.667-26.008-26.008-26.008H41.406
			c-4.148,0-7.511,3.363-7.511,7.511V84.02c0,4.148,3.363,7.511,7.511,7.511h21.438v35.087H26.692
			c-6.903,0-12.518,5.615-12.518,12.518v17.423v0.777v27.655c0,6.088,4.37,11.169,10.138,12.285l1.144,13.284
			c-0.991,0.599-1.911,1.326-2.71,2.188c-2.361,2.549-3.563,5.998-3.298,9.463l8.372,109.367c0.405,5.287,4.125,9.636,9.009,11.063
			l3.703,43.013c-0.016,0.198-0.03,0.398-0.03,0.601c0,0.644,0.09,1.266,0.242,1.863l0.679,7.889
			c0.328,3.818,1.442,7.373,3.174,10.515H12.518C5.615,406.522,0,412.137,0,419.04v26.987c0,6.903,5.615,12.518,12.518,12.518
			h310.578c4.148,0,7.511-3.363,7.511-7.511s-3.363-7.511-7.511-7.511H15.022v-21.98h481.957v21.98H377.174
			c-4.148,0-7.511,3.363-7.511,7.511s3.363,7.511,7.511,7.511h122.308c6.903,0,12.518-5.615,12.518-12.518V419.04
			C512,412.138,506.384,406.523,499.482,406.523z M48.917,76.509v-8.033h26.605c6.058,0,10.987,4.928,10.987,10.987v47.155h-8.643
			V84.02c0-4.148-3.363-7.511-7.511-7.511H48.917z M31.224,182.488h-2.028v-17.64h212.16v17.64h-2.028H31.224z M231.143,197.509
			l-0.966,11.228H40.376l-0.967-11.228H231.143z M42.62,328.118l-7.989-104.359h201.256l-8.408,104.359H42.62z M214.162,394.718
			c-0.505,5.858-5.32,10.276-11.199,10.276H67.589c-5.88,0-10.694-4.417-11.199-10.276l-0.082-0.952h157.936L214.162,394.718z
			 M215.538,378.744H55.015L51.95,343.14h166.655L215.538,378.744z M281.267,266.956c0-22.388,18.214-40.603,40.603-40.603h118.025
			c22.388,0,40.603,18.214,40.603,40.603v5.313H281.267V266.956z M281.267,294.342c0-3.888,3.163-7.051,7.051-7.051h185.129
			c3.888,0.001,7.051,3.164,7.051,7.051v1.271c0,3.888-3.164,7.051-7.051,7.051h-22.774c-1.546,0-3.055,0.478-4.32,1.367
			l-25.335,17.817l-28.467-18.019c-1.202-0.76-2.595-1.165-4.017-1.165H288.318c-3.888,0-7.051-3.164-7.051-7.051V294.342z
			 M463.095,404.863H298.672c-8.802,0-16.087-6.571-17.236-15.064h198.894C479.181,398.292,471.896,404.863,463.095,404.863z
			 M480.499,374.469H281.267v-15.063h199.231V374.469z M476.378,344.064H285.389c-6.796,0-12.324-5.529-12.324-12.324v-1.732
			c0-6.796,5.529-12.324,12.324-12.324h2.929h98.038l28.04,17.748c2.055,1.301,4.377,1.948,6.697,1.948
			c2.521,0,5.036-0.765,7.198-2.285l24.759-17.41h20.397h2.929c6.796,0,12.324,5.529,12.324,12.324v1.731h0.001
			C488.701,338.535,483.173,344.064,476.378,344.064z"/>
	</g>
</g>
<g>
	<g>
		<path d="M135.92,241.162c-20.379,0-36.959,16.58-36.959,36.959c0,20.379,16.58,36.958,36.959,36.958
			c20.379,0,36.958-16.58,36.958-36.958C172.879,257.742,156.3,241.162,135.92,241.162z M135.92,300.058
			c-12.096,0-21.938-9.841-21.938-21.937c0-12.096,9.841-21.938,21.938-21.938s21.937,9.841,21.937,21.938
			C157.857,290.217,148.017,300.058,135.92,300.058z"/>
	</g>
</g>
<g>
	<g>
		<circle cx="418.271" cy="240.797" r="7.511"/>
	</g>
</g>
<g>
	<g>
		<circle cx="380.888" cy="240.797" r="7.511"/>
	</g>
</g>
<g>
	<g>
		<circle cx="343.494" cy="240.797" r="7.511"/>
	</g>
</g>
<g>
	<g>
		<circle cx="399.574" cy="258.823" r="7.511"/>
	</g>
</g>
<g>
	<g>
		<circle cx="362.191" cy="258.823" r="7.511"/>
	</g>
</g>
<g>
</g>
<g>
</g>
<g>
</g>
<g>
</g>
<g>
</g>
<g>
</g>
<g>
</g>
<g>
</g>
<g>
</g>
<g>
</g>
<g>
</g>
<g>
</g>
<g>
</g>
<g>
</g>
<g>
</g>
</svg>
