<?xml version="1.0" encoding="utf-8"?>
<!-- Generator: Adobe Illustrator 16.0.0, SVG Export Plug-In . SVG Version: 6.00 Build 0)  -->
<!DOCTYPE svg PUBLIC "-//W3C//DTD SVG 1.1//EN" "http://www.w3.org/Graphics/SVG/1.1/DTD/svg11.dtd">
<svg version="1.1" id="Layer_1" xmlns="http://www.w3.org/2000/svg" xmlns:xlink="http://www.w3.org/1999/xlink" x="0px" y="0px"
	 width="305.164px" height="307.731px" viewBox="145.058 267.078 305.164 307.731"
	 enable-background="new 145.058 267.078 305.164 307.731" xml:space="preserve">
<g>
	<g>
		<g>
			<path d="M445.403,482.94h-61.981l-41.499-17.605c-0.595-0.253-1.235-0.383-1.883-0.383h-75.808
				c-13.285,0-24.092,10.808-24.092,24.092v10.278c0,2.363,0.342,4.648,0.979,6.809l-59.318-25.652
				c-12.032-5.203-25.814,0.02-31.377,11.888l-2.956,6.305c-2.778,5.927-3.041,12.565-0.741,18.693
				c2.301,6.128,6.868,10.954,12.861,13.588l43.598,19.164c2.436,1.071,5.279-0.036,6.35-2.473c1.071-2.437-0.036-5.279-2.472-6.351
				l-43.597-19.163c-3.596-1.58-6.336-4.476-7.718-8.152c-1.38-3.677-1.222-7.66,0.445-11.216l2.956-6.306
				c3.338-7.121,11.606-10.254,18.827-7.133l77.918,33.694c0.604,0.262,1.255,0.396,1.913,0.396h6.425h66.814
				c2.661,0,4.818-2.157,4.818-4.819c0-2.661-2.157-4.818-4.818-4.818h-66.815c-7.97,0-14.455-6.484-14.455-14.455v-10.279
				c0-7.97,6.485-14.455,14.455-14.455h74.83l41.499,17.606c0.595,0.253,1.235,0.382,1.882,0.382h58.143v45.909l-64.635,26.332
				c-0.58,0.235-1.192,0.356-1.819,0.356H262.403c-0.673,0-1.325-0.138-1.939-0.408l-37.979-16.693
				c-2.437-1.07-5.278,0.036-6.35,2.472c-1.071,2.437,0.036,5.279,2.472,6.351l37.979,16.693c1.844,0.812,3.801,1.222,5.816,1.222
				h111.728c1.878,0,3.712-0.36,5.454-1.068l67.637-27.557c1.813-0.738,3-2.502,3-4.462v-53.965
				C450.221,485.098,448.063,482.94,445.403,482.94z"/>
		</g>
	</g>
	<g>
		<g>
			<path d="M351.816,383.709c-0.694-2.569-3.339-4.087-5.909-3.393c-2.568,0.695-4.087,3.34-3.393,5.91
				c1.13,4.174,1.702,8.506,1.702,12.875c0,27.1-22.047,49.147-49.147,49.147s-49.147-22.047-49.147-49.147
				s22.046-49.147,49.147-49.147c16.059,0,31.139,7.875,40.341,21.066c1.521,2.181,4.524,2.719,6.708,1.194
				c2.183-1.522,2.718-4.525,1.195-6.708c-11.002-15.773-29.037-25.189-48.244-25.189c-32.414,0-58.784,26.371-58.784,58.784
				c0,32.414,26.371,58.785,58.784,58.785c32.414,0,58.785-26.371,58.785-58.785C353.854,393.883,353.169,388.704,351.816,383.709z"
				/>
		</g>
	</g>
	<g>
		<g>
			<path d="M446.038,417.453c-3.271-0.436-11.515-2.255-17.4-9.76c-4.183-5.335-5.186-11.122-5.412-14.096
				c-0.189-2.512-2.285-4.454-4.805-4.454s-4.614,1.941-4.805,4.454c-0.226,2.975-1.23,8.761-5.412,14.096
				c-5.886,7.505-14.13,9.326-17.4,9.76c-2.396,0.318-4.185,2.36-4.185,4.777c0,2.416,1.789,4.457,4.185,4.775
				c3.271,0.436,11.515,2.256,17.4,9.761c4.182,5.335,5.187,11.123,5.412,14.097c0.19,2.511,2.285,4.453,4.805,4.453
				s4.615-1.94,4.805-4.453c0.227-2.975,1.229-8.761,5.412-14.096c5.886-7.506,14.13-9.326,17.4-9.762
				c2.396-0.317,4.185-2.359,4.185-4.775C450.222,419.813,448.433,417.771,446.038,417.453z M421.052,430.821
				c-1.002,1.278-1.875,2.571-2.633,3.858c-0.758-1.288-1.631-2.58-2.633-3.859c-3.023-3.855-6.487-6.616-9.868-8.591
				c3.382-1.974,6.845-4.735,9.868-8.59c1.003-1.279,1.875-2.572,2.633-3.86c0.759,1.289,1.631,2.582,2.633,3.86
				c3.024,3.856,6.488,6.617,9.869,8.59C427.54,424.204,424.077,426.965,421.052,430.821z"/>
		</g>
	</g>
	<g>
		<g>
			<path d="M325.257,295.388c-3.271-0.436-11.515-2.256-17.4-9.76c-4.183-5.335-5.187-11.123-5.412-14.096
				c-0.19-2.513-2.284-4.454-4.804-4.454s-4.615,1.94-4.805,4.454c-0.226,2.975-1.23,8.761-5.412,14.096
				c-5.886,7.504-14.129,9.326-17.401,9.76c-2.395,0.318-4.184,2.36-4.184,4.776c0,2.417,1.789,4.458,4.185,4.777
				c3.271,0.435,11.515,2.255,17.401,9.76c4.182,5.335,5.186,11.123,5.412,14.096c0.19,2.512,2.286,4.454,4.805,4.454
				c2.52,0,4.614-1.941,4.804-4.454c0.227-2.974,1.23-8.761,5.412-14.095c5.886-7.506,14.129-9.327,17.4-9.761
				c2.395-0.318,4.184-2.36,4.184-4.777C329.441,297.748,327.652,295.707,325.257,295.388z M300.272,308.755
				c-1.002,1.278-1.874,2.571-2.632,3.86c-0.759-1.289-1.631-2.582-2.634-3.86c-3.024-3.855-6.487-6.615-9.869-8.591
				c3.382-1.975,6.845-4.735,9.869-8.591c1.003-1.279,1.875-2.572,2.634-3.859c0.758,1.289,1.63,2.582,2.633,3.859
				c3.023,3.856,6.487,6.617,9.868,8.591C306.76,302.139,303.296,304.9,300.272,308.755z"/>
		</g>
	</g>
	<g>
		<g>
			<path d="M204.477,417.453c-3.271-0.436-11.515-2.256-17.4-9.76c-4.183-5.335-5.186-11.122-5.412-14.096
				c-0.192-2.512-2.286-4.454-4.805-4.454s-4.614,1.941-4.805,4.454c-0.226,2.975-1.229,8.761-5.411,14.096
				c-5.887,7.506-14.13,9.327-17.401,9.761c-2.395,0.318-4.184,2.36-4.184,4.777c0,2.416,1.789,4.457,4.185,4.775
				c3.271,0.436,11.514,2.256,17.401,9.761c4.182,5.335,5.186,11.123,5.412,14.097c0.191,2.511,2.285,4.453,4.805,4.453
				s4.615-1.94,4.805-4.453c0.227-2.975,1.229-8.761,5.412-14.096c5.886-7.506,14.13-9.326,17.401-9.762
				c2.396-0.317,4.185-2.359,4.185-4.775C208.662,419.813,206.873,417.771,204.477,417.453z M179.492,430.821
				c-1.002,1.278-1.875,2.571-2.632,3.858c-0.759-1.288-1.63-2.58-2.633-3.859c-3.024-3.855-6.487-6.616-9.869-8.591
				c3.382-1.974,6.845-4.736,9.869-8.591c1.002-1.278,1.875-2.571,2.633-3.859c0.758,1.289,1.63,2.581,2.632,3.859
				c0,0,0,0.001,0.001,0.001c3.023,3.856,6.486,6.617,9.868,8.59C185.979,424.204,182.516,426.965,179.492,430.821z"/>
		</g>
	</g>
	<g>
		<path d="M315.179,426.045c-2.721,1.775-8.99,3.904-16.207,3.904c-7.807,0-15.496-2.603-21.174-8.281
			c-3.548-3.548-6.151-8.517-7.216-14.076h-7.453v-5.796h6.625c-0.119-1.302-0.237-2.129-0.237-2.839
			c0-1.183,0.118-2.603,0.355-4.14h-6.743v-5.678h7.571c1.301-5.441,3.903-10.292,7.452-13.84
			c6.033-6.033,14.195-8.872,22.357-8.872c6.979,0,11.475,1.774,14.551,3.312l-2.366,7.334c-2.72-1.419-6.624-2.839-12.303-2.839
			c-5.205,0-10.409,1.656-14.549,5.678c-2.366,2.365-4.259,5.559-4.85,9.227h29.455v5.678h-30.639
			c-0.119,1.301-0.236,2.603-0.236,3.431c0,1.064,0,2.129,0.118,3.549h30.756v5.796h-29.573c0.828,3.43,2.484,6.388,4.613,8.517
			c4.259,4.14,8.991,5.796,14.905,5.796c5.797,0,10.646-1.656,13.367-3.076L315.179,426.045z"/>
	</g>
</g>
</svg>
