<?xml version="1.0" encoding="utf-8"?>
<!-- Generator: Adobe Illustrator 16.0.0, SVG Export Plug-In . SVG Version: 6.00 Build 0)  -->
<!DOCTYPE svg PUBLIC "-//W3C//DTD SVG 1.1//EN" "http://www.w3.org/Graphics/SVG/1.1/DTD/svg11.dtd">
<svg version="1.1" id="Layer_1" xmlns="http://www.w3.org/2000/svg" xmlns:xlink="http://www.w3.org/1999/xlink" x="0px" y="0px"
	 width="120px" height="109.999px" viewBox="0 -1.429 120 109.999" enable-background="new 0 -1.429 120 109.999"
	 xml:space="preserve">
<g>
	<rect y="-1.429" fill="#191919" width="120" height="109.999"/>
	<g>
		<path fill="#FFFFFF" d="M9.766,43.518h3.43v18.709h5.643v3.117H9.766V43.518z"/>
		<path fill="#FFFFFF" d="M21.113,43.518h3.429v21.827h-3.429V43.518z"/>
		<path fill="#FFFFFF" d="M35.082,59.014l2.337-15.497h4.771v21.827h-3.243V49.69l-2.369,15.652h-3.244l-2.557-15.436v15.436h-2.993
			V43.518h4.771L35.082,59.014z"/>
		<path fill="#FFFFFF" d="M48.891,52.715H53.6v3.118h-4.708v6.394h5.924v3.116h-9.355V43.518h9.354v3.117h-5.924V52.715z"/>
		<path fill="#FFFFFF" d="M16.937,96.443c-0.187-0.563-0.312-0.906-0.312-2.683V90.33c0-2.025-0.686-2.774-2.245-2.774h-1.184v8.888
			h-3.43V74.618h5.175c3.555,0,5.083,1.649,5.083,5.021v1.713c0,2.244-0.717,3.709-2.245,4.427c1.715,0.718,2.276,2.371,2.276,4.647
			v3.367c0,1.06,0.032,1.842,0.374,2.651L16.937,96.443L16.937,96.443z M13.196,77.733v6.703h1.34c1.279,0,2.058-0.56,2.058-2.306
			v-2.151c0-1.559-0.53-2.246-1.746-2.246H13.196z"/>
		<path fill="#FFFFFF" d="M26.508,83.817h4.708v3.116h-4.708v6.393h5.924v3.117h-9.354V74.618h9.354v3.115h-5.924V83.817z"/>
		<path fill="#FFFFFF" d="M39.945,74.367c3.335,0,5.05,1.993,5.05,5.487v0.686h-3.242v-0.903c0-1.56-0.624-2.15-1.714-2.15
			c-1.092,0-1.715,0.591-1.715,2.15c0,4.489,6.703,5.329,6.703,11.566c0,3.492-1.746,5.487-5.113,5.487s-5.114-1.995-5.114-5.487
			v-1.34h3.244v1.557c0,1.561,0.685,2.122,1.776,2.122c1.092,0,1.777-0.562,1.777-2.122c0-4.487-6.703-5.33-6.703-11.566
			C34.894,76.36,36.608,74.367,39.945,74.367z"/>
		<path fill="#FFFFFF" d="M51.199,83.817h4.708v3.116h-4.708v6.393h5.925v3.117H47.77V74.618h9.354v3.115h-5.925V83.817z"/>
		<path fill="#FFFFFF" d="M71.122,96.443h-3.46l-0.593-3.962h-4.209l-0.593,3.962h-3.15l3.494-21.825h5.019L71.122,96.443z
			 M63.296,89.521h3.306l-1.655-11.038L63.296,89.521z"/>
		<path fill="#FFFFFF" d="M80.663,96.443c-0.188-0.563-0.312-0.906-0.312-2.683V90.33c0-2.025-0.688-2.774-2.246-2.774H76.92v8.888
			h-3.429V74.618h5.175c3.556,0,5.084,1.649,5.084,5.021v1.713c0,2.244-0.719,3.709-2.245,4.427
			c1.714,0.718,2.274,2.371,2.274,4.647v3.367c0,1.06,0.033,1.842,0.375,2.651L80.663,96.443L80.663,96.443z M76.92,77.733v6.703
			h1.342c1.277,0,2.057-0.56,2.057-2.306v-2.151c0-1.559-0.529-2.246-1.745-2.246H76.92z"/>
		<path fill="#FFFFFF" d="M96.748,88.304v2.898c0,3.492-1.745,5.487-5.112,5.487c-3.37,0-5.114-1.995-5.114-5.487V79.854
			c0-3.494,1.744-5.487,5.114-5.487c3.367,0,5.112,1.993,5.112,5.487v2.121h-3.242v-2.339c0-1.56-0.686-2.15-1.777-2.15
			s-1.779,0.591-1.779,2.15v11.783c0,1.561,0.688,2.122,1.779,2.122s1.777-0.562,1.777-2.122v-3.116L96.748,88.304L96.748,88.304z"
			/>
		<path fill="#FFFFFF" d="M103.047,96.443h-3.431V74.618h3.431v9.352h3.897v-9.352h3.491v21.825h-3.491v-9.355h-3.897V96.443z"/>
	</g>
</g>
</svg>
