<?xml version="1.0" encoding="iso-8859-1"?>
<!-- Generator: Adobe Illustrator 19.0.0, SVG Export Plug-In . SVG Version: 6.00 Build 0)  -->
<svg version="1.1" id="Layer_1" xmlns="http://www.w3.org/2000/svg" xmlns:xlink="http://www.w3.org/1999/xlink" x="0px" y="0px"
	 viewBox="0 0 512 512" style="enable-background:new 0 0 512 512;" xml:space="preserve">
<g>
	<g>
		<circle cx="186.182" cy="471.273" r="23.273"/>
	</g>
</g>
<g>
	<g>
		<circle cx="395.636" cy="471.273" r="23.273"/>
	</g>
</g>
<g>
	<g>
		<path d="M509.673,114.036c-2.327-2.327-5.818-3.491-9.309-3.491H151.273c-6.982,0-11.636,4.655-11.636,11.636
			s4.655,11.636,11.636,11.636H486.4l-27.927,189.673c-1.164,11.636-11.636,19.782-23.273,19.782H148.945L96.582,46.545
			c-3.491-17.455-17.455-29.091-34.909-29.091H34.909C15.127,17.455,0,32.582,0,52.364C0,59.345,4.655,64,11.636,64
			s11.636-4.655,11.636-11.636s4.655-11.636,11.636-11.636h26.764c5.818,0,10.473,3.491,11.636,9.309l53.527,300.218
			c-12.8,8.146-22.109,23.273-22.109,39.564c0,25.6,20.945,46.545,46.545,46.545h302.545c6.982,0,11.636-4.655,11.636-11.636
			s-4.655-11.636-11.636-11.636H151.273c-12.8,0-23.273-10.473-23.273-23.273s10.473-23.273,23.273-23.273H435.2
			c23.273,0,43.055-16.291,46.545-39.564L512,123.345C512,121.018,510.836,117.527,509.673,114.036z"/>
	</g>
</g>
<g>
	<g>
		<path d="M430.545,261.818H384v-46.545h46.545c6.982,0,11.636-4.655,11.636-11.636S437.527,192,430.545,192H384v-23.273
			c0-6.982-4.655-11.636-11.636-11.636s-11.636,4.655-11.636,11.636V192h-46.545v-23.273c0-6.982-4.655-11.636-11.636-11.636
			s-11.636,4.655-11.636,11.636V192h-46.545v-23.273c0-6.982-4.655-11.636-11.636-11.636s-11.636,4.655-11.636,11.636V192h-46.545
			c-6.982,0-11.636,4.655-11.636,11.636s4.655,11.636,11.636,11.636h46.545v46.545h-46.545c-6.982,0-11.636,4.655-11.636,11.636
			c0,6.982,4.655,11.636,11.636,11.636h46.545v23.273c0,6.982,4.655,11.636,11.636,11.636s11.636-4.655,11.636-11.636v-23.273
			h46.545v23.273c0,6.982,4.655,11.636,11.636,11.636s11.636-4.655,11.636-11.636v-23.273h46.545v23.273
			c0,6.982,4.655,11.636,11.636,11.636S384,315.345,384,308.364v-23.273h46.545c6.982,0,11.636-4.655,11.636-11.636
			C442.182,266.473,437.527,261.818,430.545,261.818z M290.909,261.818h-46.545v-46.545h46.545V261.818z M360.727,261.818h-46.545
			v-46.545h46.545V261.818z"/>
	</g>
</g>
<g>
</g>
<g>
</g>
<g>
</g>
<g>
</g>
<g>
</g>
<g>
</g>
<g>
</g>
<g>
</g>
<g>
</g>
<g>
</g>
<g>
</g>
<g>
</g>
<g>
</g>
<g>
</g>
<g>
</g>
</svg>
