<?xml version="1.0" encoding="iso-8859-1"?>
<!-- Generator: Adobe Illustrator 19.0.0, SVG Export Plug-In . SVG Version: 6.00 Build 0)  -->
<svg version="1.1" id="Capa_1" xmlns="http://www.w3.org/2000/svg" xmlns:xlink="http://www.w3.org/1999/xlink" x="0px" y="0px"
	 viewBox="0 0 496 496" style="enable-background:new 0 0 496 496;" xml:space="preserve">
<g>
	<g>
		<g>
			<path d="M256,432h96v24c0,13.232-10.768,24-24,24H40c-13.232,0-24-10.768-24-24v-24h96v-16H0v40c0,22.056,17.944,40,40,40h288
				c22.056,0,40-17.944,40-40v-40H256V432z"/>
			<path d="M128,440c0,13.232,10.768,24,24,24h64c13.232,0,24-10.768,24-24v-24H128V440z M144,432h80v8c0,4.416-3.584,8-8,8h-64
				c-4.416,0-8-3.584-8-8V432z"/>
			<rect x="48" y="448" width="16" height="16"/>
			<rect x="80" y="448" width="16" height="16"/>
			<rect x="336" y="240" width="16" height="160"/>
			<path d="M32,200c0-13.232,10.768-24,24-24h200v-16H56c-22.056,0-40,17.944-40,40v200h16V200z"/>
			<rect x="304" y="240" width="16" height="160"/>
			<path d="M256,192H64c-8.824,0-16,7.176-16,16v192h16V208h192V192z"/>
			<path d="M239.84,280.792c2.4,4.28,4.312,8.928,5.696,13.8l1.152,4.08l9.312,3.096v20.472l-9.312,3.104l-1.152,4.08
				c-1.384,4.864-3.296,9.512-5.696,13.8l-2.072,3.704l4.376,8.768l-14.472,14.472l-8.768-4.376l-3.704,2.072
				c-4.28,2.4-8.928,4.312-13.8,5.696l-4.08,1.152L194.232,384H173.76l-3.104-9.312l-4.08-1.152
				c-4.864-1.384-9.512-3.296-13.8-5.696l-3.704-2.072l-8.768,4.376L121.76,351.6l-11.312,11.312l26.704,26.704l11.624-5.816
				c3.008,1.472,6.128,2.76,9.328,3.84l4.128,12.36h43.528l4.12-12.352c3.2-1.088,6.32-2.376,9.328-3.84l11.624,5.816l30.784-30.784
				l-5.816-11.624c1.472-3.008,2.76-6.128,3.84-9.328l12.36-4.12V290.24l-12.352-4.12c-1.56-4.584-3.52-9-5.848-13.16
				L239.84,280.792z"/>
			<path d="M219.208,240.192c-3-1.472-6.12-2.752-9.328-3.84L205.768,224H162.24l-4.12,12.352c-3.208,1.088-6.328,2.376-9.328,3.84
				l-11.624-5.816l-30.784,30.784l5.816,11.624c-1.472,3.008-2.76,6.128-3.84,9.328L96,290.232v43.528l12.352,4.12
				c1.56,4.584,3.52,9,5.848,13.16l13.952-7.832c-2.4-4.28-4.312-8.928-5.696-13.8l-1.152-4.08L112,322.232V301.76l9.312-3.104
				l1.152-4.08c1.384-4.864,3.296-9.512,5.696-13.8l2.072-3.704l-4.376-8.768l14.472-14.472l8.776,4.384l3.696-2.08
				c4.272-2.4,8.912-4.312,13.792-5.688l4.08-1.152l3.096-9.296h20.472l3.112,9.32l4.08,1.152c4.872,1.376,9.512,3.288,13.792,5.688
				l3.696,2.08l8.776-4.384L246.24,272.4l11.312-11.312l-26.704-26.704L219.208,240.192z"/>
			<path d="M184,360c26.472,0,48-21.528,48-48s-21.528-48-48-48s-48,21.528-48,48S157.528,360,184,360z M184,280
				c17.648,0,32,14.352,32,32s-14.352,32-32,32s-32-14.352-32-32S166.352,280,184,280z"/>
			<path d="M496,64V0H272v64h24v16h-24v64h24v16h-24v64h224v-64h-24v-16h24V80h-24V64H496z M480,176v32H288v-32H480z M312,160v-16
				h144v16H312z M480,96v32H288V96H480z M312,80V64h144v16H312z M288,48V16h192v32H288z"/>
			<path d="M392,328c10.416,0,19.216-6.712,22.528-16H440c13.232,0,24-10.768,24-24v-32h-16v32c0,4.416-3.584,8-8,8h-25.472
				c-3.312-9.288-12.112-16-22.528-16c-13.232,0-24,10.768-24,24S378.768,328,392,328z M392,296c4.416,0,8,3.584,8,8
				c0,4.416-3.584,8-8,8c-4.416,0-8-3.584-8-8C384,299.584,387.584,296,392,296z"/>
			<path d="M480,336c0,13.232-10.768,24-24,24h-41.472c-3.312-9.288-12.112-16-22.528-16c-13.232,0-24,10.768-24,24s10.768,24,24,24
				c10.416,0,19.216-6.712,22.528-16H456c22.056,0,40-17.944,40-40v-80h-16V336z M392,376c-4.416,0-8-3.584-8-8c0-4.416,3.584-8,8-8
				c4.416,0,8,3.584,8,8C400,372.416,396.416,376,392,376z"/>
			<path d="M232,64c-10.416,0-19.216,6.712-22.528,16H184c-13.232,0-24,10.768-24,24v32h16v-32c0-4.408,3.584-8,8-8h25.472
				c3.312,9.288,12.112,16,22.528,16c13.232,0,24-10.768,24-24S245.232,64,232,64z M232,96c-4.416,0-8-3.592-8-8s3.584-8,8-8
				s8,3.592,8,8S236.416,96,232,96z"/>
			<path d="M144,56c0-13.232,10.768-24,24-24h41.472c3.312,9.288,12.112,16,22.528,16c13.232,0,24-10.768,24-24S245.232,0,232,0
				c-10.416,0-19.216,6.712-22.528,16H168c-22.056,0-40,17.944-40,40v80h16V56z M232,16c4.416,0,8,3.592,8,8s-3.584,8-8,8
				s-8-3.592-8-8S227.584,16,232,16z"/>
		</g>
	</g>
</g>
<g>
</g>
<g>
</g>
<g>
</g>
<g>
</g>
<g>
</g>
<g>
</g>
<g>
</g>
<g>
</g>
<g>
</g>
<g>
</g>
<g>
</g>
<g>
</g>
<g>
</g>
<g>
</g>
<g>
</g>
</svg>
